<?xml version="1.0" standalone="no"?><!DOCTYPE svg PUBLIC "-//W3C//DTD SVG 1.1//EN" "http://www.w3.org/Graphics/SVG/1.1/DTD/svg11.dtd"><svg t="1560132329773" class="icon" style="" viewBox="0 0 1024 1024" version="1.1" xmlns="http://www.w3.org/2000/svg" p-id="7557" xmlns:xlink="http://www.w3.org/1999/xlink" width="200" height="200"><defs><style type="text/css"></style></defs><path d="M64.32 511.36c0 247.36 200.48 447.84 447.84 447.84S960 758.72 960 511.36 759.52 63.52 512.16 63.52 64.32 264 64.32 511.36z" fill="#DE2910" p-id="7558"></path><path d="M363.2 291.36l43.2 127.36h139.68l-113.12 82.72 41.92 126.4-111.36-75.04-111.52 75.04 41.92-126.4-112.32-82.72h139.68c-0.32 0 41.92-127.36 41.92-127.36z m448.16 254.08l13.92 41.12h45.28l-36.8 26.88 13.76 40.96-36.16-24.16-36 24.16 13.6-40.96-36.32-26.88h45.12l13.6-41.12z m-30.4-188.32l30.88 30.72 40.48-20-20.96 40.16 30.4 30.72-43.04-5.92-21.6 37.76-5.92-42.56-44.64-8L787.2 400l-6.24-42.88z m-147.52-107.84l41.12 14.88 28.16-35.36-1.92 45.44 40.32 15.04-41.44 12.96-3.52 43.36-23.52-36-43.68 11.68 28.32-35.36-23.84-36.64z m0 448.16l41.12 15.04 28.16-35.36-1.92 45.44 40.32 15.04-41.44 12.96-3.52 43.52-23.52-36.16-43.68 11.52 28.32-35.36-23.84-36.64z" fill="#FFDC00" p-id="7559"></path></svg>